<svg width="50" height="42" viewBox="0 0 50 42" fill="none" xmlns="http://www.w3.org/2000/svg">
<path d="M25.0559 0.000580853V0C25.0372 0 25.0186 6.73455e-05 25 0.000135811C24.9814 6.73455e-05 24.9628 0 24.9441 0V0.000580853C20.6871 0.0432348 16.9564 2.52223 14.8233 6.17393C13.3888 5.24007 11.6674 4.66937 9.80261 4.66937C4.39944 4.66937 -0.0474163 9.49437 0.000381762 15.357C0.000381762 21.3234 4.39944 26.0965 9.89824 26.0965H25.0559H40.1018C45.6006 26.0965 49.9996 21.3234 49.9996 15.357C50.0474 9.49437 45.6006 4.66937 40.1974 4.66937C38.3326 4.66937 36.6112 5.24007 35.1767 6.17393C33.0436 2.52223 29.3129 0.0432348 25.0559 0.000580853Z" fill="black"/>
<path d="M9.58923 33.6605H40.4106V28.4596H9.58923V33.6605Z" fill="black"/>
<path d="M9.58923 41.2245H40.4106V36.0236H9.58923V41.2245Z" fill="black"/>
</svg>
